<svg width="25" height="25" viewBox="0 0 25 25" fill="none" xmlns="http://www.w3.org/2000/svg">
<path d="M23.297 16.7341C22.0271 15.6867 20.8622 15.1776 19.7357 15.1776C18.1061 15.1776 16.9327 16.2415 15.8704 17.3313C15.7482 17.4568 15.6003 17.5153 15.405 17.5153C14.5098 17.5154 12.935 16.3649 10.7243 14.0958C8.12355 11.4265 7.14024 9.72877 7.80143 9.04992C9.59386 7.211 10.1534 5.36753 7.4091 1.86481C6.42666 0.609906 5.46545 0 4.47057 0C3.12886 0 2.10892 1.10069 1.20905 2.0719C1.05347 2.23978 0.906513 2.39837 0.762423 2.54625C-0.254648 3.58996 -0.254126 5.86653 0.763902 8.63638C1.88086 11.6755 4.08624 14.9815 6.97387 17.9454C9.20701 20.2371 11.6368 22.0891 14.0007 23.3326C16.0645 24.4183 18.0664 25 19.6375 25C19.6377 25 19.6379 25 19.6381 25C20.6214 25 21.42 24.7799 21.9475 24.3322C23.019 23.4231 25.0132 21.7391 24.9999 19.7388C24.9926 18.666 24.4198 17.6606 23.297 16.7341Z" fill="#0283A3"/>
</svg>
