<svg width="13" height="13" viewBox="0 0 13 13" fill="none" xmlns="http://www.w3.org/2000/svg">
<path d="M12.1823 6.06579C12.4704 5.77298 12.5722 5.3433 12.4478 4.94435C12.3235 4.5454 11.9989 4.26012 11.6007 4.19979L8.5625 3.73955C8.55693 3.73871 8.55217 3.73506 8.54971 3.72986L7.19105 0.859904C7.01301 0.483737 6.6524 0.25 6.24997 0.25C5.84754 0.25 5.48699 0.483737 5.30895 0.859904L3.95024 3.72986C3.94777 3.73506 3.94301 3.73865 3.93745 3.73955L0.89928 4.19979C0.501097 4.26012 0.176505 4.5454 0.0521514 4.94435C-0.0722019 5.3433 0.0295522 5.77298 0.317664 6.06579L2.5161 8.29977C2.52012 8.30384 2.52195 8.3097 2.52098 8.31544L2.002 11.4699C1.93397 11.8833 2.094 12.2933 2.41951 12.5399C2.74508 12.7865 3.16856 12.8183 3.5247 12.6232L6.24211 11.1339C6.24705 11.1311 6.25301 11.1312 6.25794 11.1339L8.97536 12.6232C9.13029 12.7081 9.29789 12.75 9.46469 12.75C9.68133 12.75 9.8966 12.6792 10.0805 12.5399C10.406 12.2933 10.566 11.8833 10.498 11.4698L9.97902 8.31544C9.97805 8.3097 9.97994 8.30384 9.9839 8.29977L12.1823 6.06579ZM8.96137 8.49734L9.48035 11.6517C9.48172 11.6601 9.48213 11.6626 9.47358 11.6691C9.46503 11.6755 9.46285 11.6743 9.45568 11.6704L6.73821 10.181C6.43249 10.0135 6.0674 10.0135 5.76156 10.181L3.04415 11.6703C3.03698 11.6742 3.0348 11.6755 3.02625 11.669C3.0177 11.6626 3.0181 11.66 3.01948 11.6517L3.53846 8.49728C3.59685 8.14234 3.48403 7.7804 3.23664 7.52896L1.03832 5.29504C1.03252 5.28912 1.03075 5.28739 1.03401 5.27692C1.03728 5.26646 1.03969 5.2661 1.04772 5.26484L4.08589 4.80461C4.42781 4.75282 4.7232 4.52913 4.87606 4.20618L6.23477 1.33617C6.23839 1.32863 6.23942 1.3263 6.24997 1.3263C6.26053 1.3263 6.26162 1.32863 6.26517 1.33617L7.62388 4.20618C7.7768 4.52913 8.07214 4.75288 8.41405 4.80461L11.4522 5.26484C11.4602 5.2661 11.4627 5.26646 11.4659 5.27692C11.4692 5.28739 11.4674 5.28918 11.4616 5.29504L9.26319 7.52902C9.01586 7.7804 8.90303 8.1424 8.96137 8.49734Z" fill="#74727D"/>
</svg>
