<svg width="84" height="85" viewBox="0 0 84 85" fill="none" xmlns="http://www.w3.org/2000/svg">
<path fill-rule="evenodd" clip-rule="evenodd" d="M49.6258 65.9614C49.8229 65.6787 49.6498 65.6257 50.13 65.6257H55.1734C55.6469 65.6257 55.4848 65.6984 55.678 65.9614C55.4809 66.2446 55.6539 66.2976 55.1734 66.2976H50.13C49.6569 66.2976 49.819 66.2249 49.6258 65.9614ZM38.3623 62.4344C38.6918 62.5223 41.5626 64.7485 44.2678 65.7723C46.9604 66.7913 46.5131 66.059 47.2465 67.4991C48.3899 69.7441 51.7921 69.1528 55.0056 69.1528C56.4232 69.1528 57.4843 68.5409 57.9999 67.6099C58.8148 66.1391 57.6718 66.9813 60.9128 65.817C64.0807 64.6789 66.2594 62.6165 66.941 62.4344L66.1726 69.7288C65.9632 71.256 65.9369 74.0048 65.2237 74.8273C64.9416 75.1525 64.3107 75.5355 63.7473 75.5355H41.5565C39.2109 75.5355 39.4523 72.2242 39.1535 69.8741L38.3623 62.4344ZM70.9759 52.1889L71.6484 46.4781H72.3208C72.3208 47.6336 71.7136 51.1279 70.9759 52.1889ZM32.983 46.4781H33.6554L34.3279 52.0208C34.002 51.6461 33.9704 51.3979 33.7987 50.8696C33.6607 50.4459 33.5481 50.1369 33.4184 49.5701C33.1691 48.4823 32.983 47.7387 32.983 46.4781ZM36.5131 46.4781H56.8548C56.8548 48.9043 56.2204 53.1965 59.8807 53.1965C63.5502 53.1965 62.9066 48.9454 62.9066 46.4781H68.7902L67.7322 56.0027C67.5127 57.7412 67.8672 57.5915 66.7329 58.6989C64.2174 61.1545 61.297 63.1076 57.695 63.9462C57.1614 63.589 57.0563 63.2332 56.2756 63.0126C55.0064 62.6541 50.2974 62.6541 49.0278 63.0126C48.2475 63.2332 48.1424 63.589 47.6088 63.9462C43.9949 63.1049 41.0908 61.1457 38.5704 58.6994C37.5045 57.6651 37.8519 57.8555 37.6189 56.1226L36.5131 46.4781ZM62.9066 43.2867C62.9066 40.6145 66.0683 41.2711 69.7992 41.2711C72.5105 41.2711 72.4891 42.2047 72.4891 43.7905H62.9066V43.2867ZM32.8147 42.9506C32.8147 40.7196 35.9502 41.3525 36.7019 41.3704C37.151 41.3809 37.0454 41.2711 37.6898 41.2711H54.5009C56.9297 41.2711 56.8548 42.3723 56.8548 43.7905H32.8147V42.9506ZM61.0574 33.0408C64.4894 33.0408 67.7208 35.8526 67.7817 38.5835C65.0945 38.5835 63.222 38.2102 61.5165 39.7141C59.3519 41.6234 60.0489 46.8746 60.0489 50.3413H59.7125C59.7125 46.103 60.5624 41.3888 57.8935 39.3933C56.8775 38.6339 56.0662 38.5835 54.3331 38.5835C55.0984 35.3007 57.9141 33.0408 61.0574 33.0408ZM49.1215 30.3537C50.4984 30.3537 51.1516 30.3791 52.3472 31.3298C52.8168 31.7027 53.6606 32.7786 53.6606 33.545C53.6606 33.8195 52.8309 34.8551 52.3691 35.7817C51.8478 36.8287 51.7566 37.3772 51.475 38.5835H38.3623C39.2114 36.9806 39.9894 35.5603 42.5654 35.5603C44.2122 35.5603 45.1283 36.5683 45.7591 36.5683C46.829 36.5683 48.0618 35.165 46.6358 34.013C46.2743 33.721 45.9072 33.4894 45.4231 33.377C45.5414 31.9553 47.529 30.3537 49.1215 30.3537ZM35.5046 38.5835C32.0857 38.5835 29.957 39.7623 29.957 43.6224C29.957 47.6349 30.5958 50.4998 31.7576 53.4127C32.3534 54.9062 32.9352 55.8639 33.7251 57.1578C35.191 59.559 34.9526 57.6638 35.3666 61.3966C35.7447 64.8041 36.153 68.2992 36.5434 71.8101C36.7703 73.8534 36.758 74.9984 37.8042 76.4293C38.5906 77.5043 39.9395 78.3907 41.7247 78.3907H63.5791C65.0419 78.3907 66.6655 77.6435 67.4514 76.5488C68.9681 74.4355 69.0137 69.4614 69.3247 66.6635C69.4185 65.8236 70.0642 59.4238 70.3258 58.9296C70.4896 58.6197 70.6806 58.4683 70.9045 58.1641C73.9869 53.9835 75.3468 49.1582 75.3468 43.4548C75.3468 40.5265 73.6123 38.5835 70.6394 38.5835C70.6394 36.5482 69.1276 34.2961 67.8264 32.9961C65.3613 30.5336 63.0792 30.3537 60.0489 30.3537C58.5677 30.3537 57.0103 31.1709 56.0141 31.6975C55.3797 30.4994 54.7388 29.6052 53.6654 28.837C50.3823 26.4861 45.9282 27.2709 43.5021 30.7857C42.0025 32.9589 43.7588 32.4227 40.9804 32.9694C40.5243 33.0592 40.1997 33.1642 39.8216 33.3231C37.6679 34.2283 36.0706 36.156 35.5046 38.5835Z" fill="white"/>
<path fill-rule="evenodd" clip-rule="evenodd" d="M5.74843 74.1218V76.1256H3.731C3.94654 75.3907 4.08936 74.6842 4.25891 73.8732C4.39253 73.2354 4.7211 72.107 4.7395 71.4496H18.1886C19.8095 71.4496 31.2951 71.0937 31.8905 71.3822C32.2033 71.5336 33.1215 75.7155 33.1504 75.9921H31.3012C31.3012 75.0874 31.5978 73.0529 29.9563 73.0529C28.1268 73.0529 28.4431 74.8007 28.4431 75.9921H25.7536C25.7536 74.517 26.0379 73.0529 24.0722 73.0529C22.51 73.0529 22.8955 75.2471 22.8955 75.9921L19.8696 76.1256C19.8696 74.8777 20.2814 73.0529 18.5246 73.0529C16.7104 73.0529 17.0119 74.8383 17.0119 76.1256H14.1537C14.1537 74.5941 14.5064 73.0529 12.4728 73.0529C10.946 73.0529 11.296 75.3592 11.296 76.1256H8.4379C8.4379 74.6081 8.83394 73.0529 7.09338 73.0529C6.28028 73.0529 5.74843 73.4753 5.74843 74.1218ZM5.07595 68.9108C7.02241 68.1689 11.643 69.6493 12.2392 67.9238C12.5731 66.9591 11.6842 66.4054 13.1238 66.3555C14.8569 66.296 17.1577 66.5166 18.8151 66.3362C19.8512 66.2233 23.2801 66.0062 24.2404 66.3726C24.5887 66.949 24.2431 67.3128 24.5164 67.8901C25.0308 68.9761 27.2769 68.6438 29.452 68.6438C30.6572 68.6438 31.3717 68.116 31.469 69.0448C29.1585 69.0448 27.322 69.1783 24.9129 69.1783C19.5164 69.1783 11.5541 68.9664 6.39944 69.3149C5.44352 69.3792 5.42906 69.3302 5.07595 68.9108ZM17.0119 15.736V64.1013C14.0867 64.1013 11.2855 63.7003 9.94889 65.4359C9.63039 65.8495 9.68691 66.1082 9.44683 66.5061C6.72494 66.5061 3.83483 66.1288 2.68483 67.8126C2.51266 68.0652 0.705078 76.5029 0.705078 77.462C0.705078 78.6565 3.45938 78.3973 4.23525 78.3969L34.9396 78.2161C37.0122 77.8555 36.0204 75.8998 35.5477 73.9533L34.42 69.3109C34.4121 68.8312 34.4616 68.4 34.1664 67.8367C33.1627 65.9226 29.9519 66.3726 27.0981 66.3726C27.0184 63.5257 22.6812 64.1013 19.8696 64.1013V15.3351C19.8696 13.8941 17.0119 13.5794 17.0119 15.736Z" fill="white"/>
<path fill-rule="evenodd" clip-rule="evenodd" d="M59.8796 22.1236C59.8796 21.3396 60.2717 20.9479 61.0563 20.9479C62.368 20.9479 62.6462 22.3227 61.9509 23.0174C61.2557 23.712 59.8796 23.4341 59.8796 22.1236ZM57.0215 22.2917C57.0215 24.4364 58.7296 26.1544 61.3924 26.1544C63.4505 26.1544 65.0908 24.3892 65.0908 21.7874C65.0908 17.1061 57.0215 16.611 57.0215 22.2917Z" fill="white"/>
<path fill-rule="evenodd" clip-rule="evenodd" d="M39.2024 26.9944C39.2024 25.9431 40.4181 26.4604 40.5473 26.4906C40.5473 27.3682 40.6928 27.6663 39.8748 27.6663C39.4814 27.6663 39.2024 27.3875 39.2024 26.9944ZM39.7066 30.5215C43.3446 30.5215 44.4608 26.4827 42.3619 24.5096C39.9213 22.2155 36.551 24.0697 36.3898 26.8592C36.2838 28.6954 37.8701 30.5215 39.7066 30.5215Z" fill="white"/>
<path fill-rule="evenodd" clip-rule="evenodd" d="M52.4824 50.8451V55.884C52.4824 57.1381 55.1719 57.4532 55.1719 55.5479C55.1719 52.6104 55.7572 49.7491 53.8291 49.7346C53.2916 49.7307 52.4824 50.2157 52.4824 50.8451Z" fill="white"/>
<path fill-rule="evenodd" clip-rule="evenodd" d="M59.5431 57.0598C59.5431 58.6286 59.1168 61.5945 60.888 61.5945C62.785 61.5945 62.4012 59.1731 62.4012 57.3955C62.4012 54.7877 59.5431 55.1361 59.5431 57.0598Z" fill="white"/>
</svg>
